Coordinates
version=1
nRows=23
nColumns=28
inDegrees=yes

Units are S.I. units (second, meters, Newtons, ...)
Angles are in degrees.

endheader
time	pelvis_tilt	pelvis_list	pelvis_rotation	pelvis_tx	pelvis_ty	pelvis_tz	hip_flexion_r	hip_adduction_r	hip_rotation_r	knee_angle_r	ankle_angle_r	subtalar_angle_r	mtp_angle_r	hip_flexion_l	hip_adduction_l	hip_rotation_l	knee_angle_l	socket_flexion	socket_adduction	socket_rotation	socket_tx	socket_ty	socket_tz	foot_flex	lumbar_extension	lumbar_bending	lumbar_rotation
      0.27083333	     -0.95942558	      2.59754237	      1.85641638	     -0.41671205	      0.98279499	      0.24318149	     15.89239087	     -4.58905492	      2.82502683	    -62.75279119	    -13.11829325	    -16.51123563	     11.91722254	     12.39714434	      4.67159595	     -7.96802332	    -28.52956623	     -5.22298594	     -5.44690843	     12.60684812	      0.00000000	     -0.00516166	      0.00000000	      4.09304727	     -7.68660829	     -5.51188310	     -4.33070526
      0.27500000	     -0.85274186	      2.40038543	      1.87435709	     -0.41102263	      0.98391771	      0.24265420	     16.45529160	     -4.36573284	      2.70929698	    -62.62472548	    -12.19641501	    -16.99639270	     11.70210259	     11.72653832	      4.45660281	     -8.08828653	    -28.18331198	     -5.18366028	     -5.45708344	     12.85324111	      0.00000000	     -0.00512799	      0.00000000	      4.17571641	     -7.77289395	     -5.24798166	     -4.52649998
      0.27916667	     -0.72582667	      2.20348088	      1.89225478	     -0.40533394	      0.98509871	      0.24217387	     16.96077127	     -4.12645097	      2.60361164	    -62.42328385	    -11.30462342	    -17.50164883	     11.40219512	     11.02142190	      4.23483693	     -8.25021830	    -27.78166591	     -5.09784607	     -5.46251524	     13.12007521	      0.00000000	     -0.00507294	      0.00000000	      4.24724288	     -7.88698339	     -4.97259803	     -4.73204768
      0.28333333	     -0.56858502	      2.00226139	      1.89093623	     -0.39960258	      0.98629802	      0.24166085	     17.42196140	     -3.88674208	      2.49783109	    -62.16947767	    -10.46189237	    -18.00856201	     11.01042620	     10.25987878	      4.01036919	     -8.43289265	    -27.34142807	     -5.00813164	     -5.46704127	     13.38806106	      0.00000000	     -0.00509803	      0.00000000	      4.31292181	     -8.02767975	     -4.68743421	     -4.92817159
      0.28750000	     -0.38325953	      1.79981175	      1.89564669	     -0.39391652	      0.98755256	      0.24117298	     17.81947916	     -3.62912878	      2.40575557	    -61.84327848	     -9.64190671	    -18.52294132	     10.50540356	      9.46109379	      3.77946490	     -8.62612478	    -26.85617751	     -4.88887257	     -5.45224610	     13.67415605	      0.00000000	     -0.00507061	      0.00000000	      4.37288878	     -8.19951768	     -4.39290587	     -5.12239795
      0.29166667	     -0.24726471	      1.61015144	      1.91072358	     -0.38823990	      0.98869968	      0.24069046	     18.25948784	     -3.39397213	      2.29308349	    -61.47600430	     -8.84801973	    -19.00427655	     10.05893506	      8.73623043	      3.57401923	     -8.76524401	    -26.43029629	     -4.81201975	     -5.45410007	     13.91653882	      0.00000000	     -0.00501040	      0.00000000	      4.41311248	     -8.33632471	     -4.13546146	     -5.27565781
      0.29583333	     -0.12387754	      1.40476746	      1.94041809	     -0.38260200	      0.98979323	      0.24017143	     18.69829202	     -3.13378866	      2.18126069	    -61.06599890	     -8.06938256	    -19.47648261	      9.63483400	      8.03787111	      3.35700718	     -8.87466929	    -26.02510022	     -4.74310997	     -5.45592897	     14.15167670	      0.00000000	     -0.00495002	      0.00000000	      4.44747663	     -8.44243887	     -3.87119168	     -5.43916633
      0.30000000	      0.02306200	      1.20549783	      1.94919278	     -0.37699539	      0.99095828	      0.23968640	     19.07862555	     -2.87393497	      2.08298539	    -60.56023972	     -7.34823266	    -19.95200794	      9.06955997	      7.30772487	      3.13587146	     -9.02027900	    -25.57058689	     -4.62791646	     -5.41244216	     14.38991815	      0.00000000	     -0.00483791	      0.00000000	      4.48865067	     -8.58840904	     -3.55740103	     -5.63966788
      0.30416667	      0.35275931	      0.95464893	      1.91124355	     -0.37110080	      0.99239857	      0.23926320	     19.18484764	     -2.50489391	      2.05795014	    -59.93656830	     -6.80684614	    -20.43844833	      7.65261611	      6.22373343	      2.86521758	     -9.24036411	    -24.78193584	     -4.38651934	     -5.37145142	     14.66615756	      0.00000000	     -0.00494916	      0.00000000	      4.54454492	     -8.90333467	     -3.22555898	     -5.89932856
      0.30833333	      0.64256347	      0.79702372	      1.89120728	     -0.36540706	      0.99378700	      0.23883166	     19.34437767	     -2.26197994	      2.00187494	    -59.31230540	     -5.92979458	    -20.70338338	      5.14752385	      5.22416540	      2.71384900	     -9.32182393	    -23.98297182	     -4.07545978	     -5.25817171	     14.81364428	      0.00000000	     -0.00488604	      0.00000000	      4.54990832	     -9.22005303	     -3.01248491	     -5.92499258
      0.31250000	      0.58975663	      0.64778999	      1.96389286	     -0.35999236	      0.99447124	      0.23822376	     19.93141498	     -2.09187577	      1.86640961	    -58.74876692	     -5.21082386	    -21.00772242	      5.08248326	      4.83107911	      2.58124816	     -9.31723906	    -23.83723451	     -4.15568677	     -5.28111873	     14.89438176	      0.00000000	     -0.00459154	      0.00000000	      4.54927194	     -9.15571763	     -2.81213528	     -6.01124855
      0.31666667	      0.55108594	      0.43737027	      2.05474286	     -0.35455581	      0.99515093	      0.23762513	     20.45372466	     -1.83197582	      1.73522529	    -58.09114746	     -4.52290627	    -21.37105202	      4.90477817	      4.39303822	      2.37003298	     -9.32655698	    -23.59287849	     -4.17162344	     -5.26565234	     15.03246884	      0.00000000	     -0.00443177	      0.00000000	      4.56949473	     -9.13383870	     -2.51746092	     -6.21323040
      0.32083333	      0.53466642	      0.39201828	      2.07850713	     -0.34915194	      0.99591894	      0.23700996	     20.95034008	     -1.78521024	      1.65800930	    -57.36512010	     -4.23123010	    -21.53826413	      4.84239439	      3.97620398	      2.36670860	     -9.34660017	    -23.51397615	     -4.30633420	     -5.33255906	     15.02472604	      0.00000000	     -0.00382055	      0.00000000	      4.59102085	     -9.09186024	     -2.42952898	     -6.27710843
      0.32500000	      0.48713653	      0.25803851	      2.16334886	     -0.34363854	      0.99659673	      0.23635236	     21.40918342	     -1.61945366	      1.55703128	    -56.55373823	     -3.67555022	    -21.85907960	      4.75228441	      3.55624577	      2.25862237	     -9.35612283	    -23.33095463	     -4.38708678	     -5.36762331	     15.09581514	      0.00000000	     -0.00344353	      0.00000000	      4.58302834	     -9.01497226	     -2.24315010	     -6.39852175
      0.32916667	      0.45118980	      0.02463375	      2.26109113	     -0.33820161	      0.99721693	      0.23589419	     21.84416005	     -1.30998070	      1.41901811	    -55.70911115	     -3.00038560	    -22.28527515	      4.57666459	      3.11535524	      2.01098136	     -9.33987633	    -23.05281610	     -4.36021532	     -5.34357840	     15.25055869	      0.00000000	     -0.00333078	      0.00000000	      4.58545036	     -8.97417674	     -1.93475669	     -6.61518217
      0.33333333	      0.42257579	     -0.08767533	      2.31657751	     -0.33290290	      0.99779011	      0.23529646	     22.28564322	     -1.16524625	      1.34177325	    -54.84236646	     -2.64730974	    -22.52731247	      4.44050431	      2.70412937	      1.92403951	     -9.34524094	    -22.89039038	     -4.41343025	     -5.37171303	     15.29158954	      0.00000000	     -0.00296803	      0.00000000	      4.60838006	     -8.96313010	     -1.77408332	     -6.75181766
      0.33750000	      0.37929144	     -0.21610251	      2.38010945	     -0.32754487	      0.99831841	      0.23473054	     22.69885426	     -0.99466604	      1.26036491	    -53.89532971	     -2.22503619	    -22.80871995	      4.29661349	      2.30017633	      1.81629902	     -9.33320461	    -22.70024227	     -4.45681469	     -5.38804415	     15.35530500	      0.00000000	     -0.00268118	      0.00000000	      4.61470602	     -8.92925447	     -1.59711146	     -6.89848661
      0.34166667	      0.77407086	     -0.68570829	      2.42892687	     -0.32179632	      0.99959913	      0.23442863	     22.46067993	     -0.30033434	      1.20637600	    -52.69959226	     -1.50613590	    -23.37409973	      0.51424201	      0.99218755	      1.33111275	     -9.09528980	    -21.17752026	     -3.69163690	     -5.00364810	     15.35743720	      0.00000000	     -0.00343152	      0.00000000	      4.64722628	     -9.36069752	     -0.96769681	     -7.28638597
      0.34583333	      0.69803148	     -0.68049156	      2.46981358	     -0.31657669	      0.99998821	      0.23389075	     22.90555307	     -0.28487598	      1.17024929	    -51.71189786	     -1.21932166	    -23.49877971	      0.50331461	      0.67857245	      1.37979113	     -9.09601377	    -21.14031954	     -3.82378487	     -5.07328834	     15.34449139	      0.00000000	     -0.00283085	      0.00000000	      4.65953905	     -9.31301687	     -0.95973307	     -7.34279053
      0.35000000	      0.59652588	     -0.99668697	      2.63967477	     -0.31114532	      1.00027772	      0.23332987	     23.25122258	      0.09500960	      1.00142286	    -50.54246750	     -0.61725447	    -23.82111405	      0.35296702	      0.32938629	      1.03976058	     -8.99912771	    -20.87353918	     -3.79949626	     -5.03490363	     15.46626410	      0.00000000	     -0.00290470	      0.00000000	      4.67500747	     -9.19322820	     -0.54022117	     -7.70314993
      0.35416667	      0.51559957	     -0.97639480	      2.67490701	     -0.30593180	      1.00056266	      0.23280350	     23.65149221	      0.09625946	      0.98228932	    -49.45785760	     -0.38139133	    -23.93621210	      0.31946146	      0.01882066	      1.11023939	     -9.00229777	    -20.82330966	     -3.92266604	     -5.10905323	     15.43408939	      0.00000000	     -0.00233108	      0.00000000	      4.69383730	     -9.14555962	     -0.54997285	     -7.75432814
      0.35833333	      0.42809694	     -1.30213388	      2.83601172	     -0.30046428	      1.00079068	      0.23228916	     23.91412138	      0.49384619	      0.83631767	    -48.15649456	      0.16220992	    -24.26247893	      0.13228631	     -0.36852674	      0.75986061	     -8.88000798	    -20.49320954	     -3.86590255	     -5.05350355	     15.52692121	      0.00000000	     -0.00246749	      0.00000000	      4.70887185	     -9.03726257	     -0.12852299	     -8.06132271
      0.36250000	      0.34044439	     -1.26237636	      2.86884816	     -0.29527478	      1.00096200	      0.23181336	     24.27469690	      0.48140441	      0.83566385	    -46.97587029	      0.36701883	    -24.35875527	      0.08696367	     -0.66870094	      0.84758917	     -8.87721974	    -20.43810794	     -3.97420655	     -5.12402611	     15.49151895	      0.00000000	     -0.00190025	      0.00000000	      4.73723283	     -8.98959732	     -0.16470535	     -8.11801864
